<svg t="1626346793867" class="icon" viewBox="0 0 1024 1024" version="1.1" xmlns="http://www.w3.org/2000/svg" p-id="2007" width="24" height="24"><path d="M811.392 367.808h-50.688V265.856A254.72 254.72 0 0 0 506.24 11.328a254.272 254.272 0 0 0-254.72 254.528v101.952h-50.56c-56.32 0-102.016 45.632-102.016 101.952v441.6c0 56.32 45.632 101.888 101.952 101.888h611.072c56.32 0 101.952-45.632 101.952-101.952V469.76a102.784 102.784 0 0 0-102.528-101.952zM352.96 265.856A152.768 152.768 0 0 1 505.6 113.28a152.384 152.384 0 0 1 152.64 152.576v101.952H352.384V265.856h0.64z m186.432 469.12v73.856a33.92 33.92 0 0 1-33.792 33.792 33.92 33.92 0 0 1-33.792-33.792V735.04a101.632 101.632 0 0 1-61.952-130.112 101.632 101.632 0 0 1 130.112-61.952 101.632 101.632 0 0 1 61.952 130.112c-10.688 28.736-33.28 51.84-62.528 61.952z" p-id="2008" fill="#1296db"></path></svg>
