<?xml version="1.0" encoding="utf-8"?>
<svg version="1.1" xmlns:xlink="http://www.w3.org/1999/xlink" width="24px" height="24px" xmlns="http://www.w3.org/2000/svg">
  <defs>
    <mask fill="white" id="clip19">
      <path d="M 23.9820000000001 11.9772  C 23.9820000000001 18.5928  18.6180000000001 23.9556  12 23.9556  C 5.38319999999999 23.9556  0.0179999999999154 18.5916  0.0179999999999154 11.9772  C 0.0179999999999154 5.3628  5.38199999999995 0  12 0  C 18.6168 0  23.9820000000001 5.3628  23.9820000000001 11.9772  Z M 12 2.2452  L 12 2.2464  C 11.9991999753747 2.24639980272487  11.9983999507124 2.2463997040873  11.9975999260628 2.2463997040873  C 6.62257050662009 2.2463997040873  2.265062520524 6.60337062138808  2.26439999999997 11.9784  C 2.26439999999997 14.4912  3.22680000000003 16.7748  4.79159999999996 18.5016  C 6.20160000000004 17.8188  5.68320000000006 18.3864  7.52760000000006 17.628  C 9.41640000000001 16.8516  9.86279999999999 16.5816  9.86279999999999 16.5816  L 9.88080000000008 14.7936  C 9.88080000000008 14.7936  9.17399999999998 14.2572  8.95440000000002 12.5736  C 8.51159999999999 12.7008  8.36639999999994 12.0576  8.33999999999992 11.6496  C 8.31599999999997 11.2536  8.08319999999992 10.0212  8.62319999999994 10.1328  C 8.51280000000003 9.3084  8.43359999999996 8.5656  8.47320000000008 8.172  C 8.60759999999993 6.792  9.94919999999996 5.3472  12.0144 5.2428  C 14.4444 5.3472  15.4068 6.7908  15.5423999999999 8.1708  C 15.5808 8.5656  15.4944 9.3084  15.384 10.1304  C 15.924 10.0212  15.6888 11.2524  15.6624 11.6472  C 15.6384 12.0552  15.4896000000001 12.696  15.0480000000001 12.57  C 14.8272000000001 14.2524  14.1204 14.784  14.1204 14.784  L 14.1372 16.5636  C 14.1372 16.5636  14.5848 16.8168  16.4723999999999 17.5932  C 18.3167999999999 18.3516  17.7984 17.8176  19.2084 18.5016  C 20.8340342432824 16.7175747237676  21.7348756782147 14.39079330727  21.7344 11.9772  C 21.7344 6.60236451871576  17.3772351853533 2.24519970406904  12.0024000000001 2.24519970406904  C 12.001599999984 2.24519970406904  12.0007999999917 2.2451998027127  12 2.2452  Z " fill-rule="evenodd" />
    </mask>
  </defs>
  <g transform="matrix(1 0 0 1 -13 -4 )">
    <path d="M 23.9820000000001 11.9772  C 23.9820000000001 18.5928  18.6180000000001 23.9556  12 23.9556  C 5.38319999999999 23.9556  0.0179999999999154 18.5916  0.0179999999999154 11.9772  C 0.0179999999999154 5.3628  5.38199999999995 0  12 0  C 18.6168 0  23.9820000000001 5.3628  23.9820000000001 11.9772  Z M 12 2.2452  L 12 2.2464  C 11.9991999753747 2.24639980272487  11.9983999507124 2.2463997040873  11.9975999260628 2.2463997040873  C 6.62257050662009 2.2463997040873  2.265062520524 6.60337062138808  2.26439999999997 11.9784  C 2.26439999999997 14.4912  3.22680000000003 16.7748  4.79159999999996 18.5016  C 6.20160000000004 17.8188  5.68320000000006 18.3864  7.52760000000006 17.628  C 9.41640000000001 16.8516  9.86279999999999 16.5816  9.86279999999999 16.5816  L 9.88080000000008 14.7936  C 9.88080000000008 14.7936  9.17399999999998 14.2572  8.95440000000002 12.5736  C 8.51159999999999 12.7008  8.36639999999994 12.0576  8.33999999999992 11.6496  C 8.31599999999997 11.2536  8.08319999999992 10.0212  8.62319999999994 10.1328  C 8.51280000000003 9.3084  8.43359999999996 8.5656  8.47320000000008 8.172  C 8.60759999999993 6.792  9.94919999999996 5.3472  12.0144 5.2428  C 14.4444 5.3472  15.4068 6.7908  15.5423999999999 8.1708  C 15.5808 8.5656  15.4944 9.3084  15.384 10.1304  C 15.924 10.0212  15.6888 11.2524  15.6624 11.6472  C 15.6384 12.0552  15.4896000000001 12.696  15.0480000000001 12.57  C 14.8272000000001 14.2524  14.1204 14.784  14.1204 14.784  L 14.1372 16.5636  C 14.1372 16.5636  14.5848 16.8168  16.4723999999999 17.5932  C 18.3167999999999 18.3516  17.7984 17.8176  19.2084 18.5016  C 20.8340342432824 16.7175747237676  21.7348756782147 14.39079330727  21.7344 11.9772  C 21.7344 6.60236451871576  17.3772351853533 2.24519970406904  12.0024000000001 2.24519970406904  C 12.001599999984 2.24519970406904  12.0007999999917 2.2451998027127  12 2.2452  Z " fill-rule="nonzero" fill="#096fff" stroke="none" fill-opacity="0.8" transform="matrix(1 0 0 1 13 4 )" />
    <path d="M 23.9820000000001 11.9772  C 23.9820000000001 18.5928  18.6180000000001 23.9556  12 23.9556  C 5.38319999999999 23.9556  0.0179999999999154 18.5916  0.0179999999999154 11.9772  C 0.0179999999999154 5.3628  5.38199999999995 0  12 0  C 18.6168 0  23.9820000000001 5.3628  23.9820000000001 11.9772  Z " stroke-width="2" stroke="#797979" fill="none" transform="matrix(1 0 0 1 13 4 )" mask="url(#clip19)" />
    <path d="M 12 2.2452  L 12 2.2464  C 11.9991999753747 2.24639980272487  11.9983999507124 2.2463997040873  11.9975999260628 2.2463997040873  C 6.62257050662009 2.2463997040873  2.265062520524 6.60337062138808  2.26439999999997 11.9784  C 2.26439999999997 14.4912  3.22680000000003 16.7748  4.79159999999996 18.5016  C 6.20160000000004 17.8188  5.68320000000006 18.3864  7.52760000000006 17.628  C 9.41640000000001 16.8516  9.86279999999999 16.5816  9.86279999999999 16.5816  L 9.88080000000008 14.7936  C 9.88080000000008 14.7936  9.17399999999998 14.2572  8.95440000000002 12.5736  C 8.51159999999999 12.7008  8.36639999999994 12.0576  8.33999999999992 11.6496  C 8.31599999999997 11.2536  8.08319999999992 10.0212  8.62319999999994 10.1328  C 8.51280000000003 9.3084  8.43359999999996 8.5656  8.47320000000008 8.172  C 8.60759999999993 6.792  9.94919999999996 5.3472  12.0144 5.2428  C 14.4444 5.3472  15.4068 6.7908  15.5423999999999 8.1708  C 15.5808 8.5656  15.4944 9.3084  15.384 10.1304  C 15.924 10.0212  15.6888 11.2524  15.6624 11.6472  C 15.6384 12.0552  15.4896000000001 12.696  15.0480000000001 12.57  C 14.8272000000001 14.2524  14.1204 14.784  14.1204 14.784  L 14.1372 16.5636  C 14.1372 16.5636  14.5848 16.8168  16.4723999999999 17.5932  C 18.3167999999999 18.3516  17.7984 17.8176  19.2084 18.5016  C 20.8340342432824 16.7175747237676  21.7348756782147 14.39079330727  21.7344 11.9772  C 21.7344 6.60236451871576  17.3772351853533 2.24519970406904  12.0024000000001 2.24519970406904  C 12.001599999984 2.24519970406904  12.0007999999917 2.2451998027127  12 2.2452  Z " stroke-width="2" stroke="#797979" fill="none" transform="matrix(1 0 0 1 13 4 )" mask="url(#clip19)" />
  </g>
</svg>